<svg version="1.2" xmlns="http://www.w3.org/2000/svg" viewBox="0 0 401 251" width="401" height="251">
	<title>logo-icon</title>
	<style>
		.s0 { fill: #cc9932 } 
	</style>
	<path id="Path 0" fill-rule="evenodd" class="s0" d="m192 0.1c8-0.1 17.1 0.5 22.3 1.4 4.8 0.8 12.4 2.7 16.9 4.1 4.6 1.5 11.7 4.2 15.8 6.1 4.1 1.9 11.8 6.3 17 9.7 5.2 3.5 13.1 9.9 17.5 14.2 4.5 4.4 10.1 10.6 12.6 13.9 2.5 3.3 6.2 8.7 8.2 12 2 3.3 5.5 10.2 7.7 15.3 2.2 5 5.1 13.4 6.4 18.5 1.3 5 3 13.9 3.6 19.7 0.7 5.8 1 13.7 0.1 24.5l8.2 4.3c4.5 2.4 8.5 4 8.8 3.5 0.4-0.4 10.2-15.1 21.8-32.5 14.3-21.6 21.5-31.6 22.4-31.1 0.6 0.4 5.4 3.6 10.5 7.2 5.2 3.6 9.2 7.1 8.9 7.6-0.2 0.6-12.7 19.4-27.8 42-15.1 22.5-27.6 41.3-27.9 41.8-0.3 0.4-7-3.1-15-7.8-8-4.7-14.7-8.5-15-8.5-0.3 0-1 1.7-1.7 3.7-0.7 2.1-3.4 8.3-6.2 13.8-2.8 5.5-7.9 13.8-11.4 18.5-3.5 4.7-10 11.8-14.3 15.9-4.4 4-10.8 9.3-14.4 11.6-3.6 2.4-10.6 6.4-15.5 8.8-4.9 2.5-12.7 5.7-17.3 7.1-4.5 1.4-12.6 3.3-17.9 4.2-7.2 1.2-13.5 1.5-23.8 1.1-7.7-0.3-17.2-1.3-21-2.1-3.8-0.9-10.6-2.8-15-4.2-4.4-1.5-11.6-4.5-16-6.7-4.4-2.2-11.4-6.3-15.5-9-4.1-2.8-11.5-9-16.3-13.7-4.9-4.7-10.6-10.7-12.7-13.5-2.1-2.7-6.2-8.8-9-13.5-2.8-4.7-6.4-11.7-8-15.5-1.6-3.8-4-11.3-5.4-16.5-1.5-5.2-3.2-14.7-5.1-32.8l-4.5 3.2c-2.5 1.7-7.4 5.8-10.9 9.1-3.5 3.3-8.5 8.9-11.1 12.5-2.7 3.6-6.6 9.9-8.8 14-2.2 4.1-4.8 10.1-5.9 13.2-1 3.2-2.4 5.8-3 5.8-0.7 0-6.1-1.2-12-2.6-6-1.4-11.1-2.8-11.5-3.2-0.3-0.4 0.4-3.6 1.6-7.2 1.2-3.6 3.7-9.7 5.5-13.5 1.8-3.8 6.2-11.5 9.9-17 3.8-5.7 10.5-13.9 15.7-19 4.9-5 12.8-11.6 17.5-14.7 4.7-3.1 11.9-7.3 16-9.3 4.1-2.1 12-5.2 17.5-7 5.5-1.8 14.5-4.1 20-5.1 7.9-1.5 14.6-1.9 32-1.8 18.1 0 24.3 0.4 35 2.2 7.2 1.3 18.4 3.6 25 5.3 6.6 1.7 17.6 4.9 24.5 7.1 6.9 2.2 18.6 6.4 26 9.3 7.4 2.9 21.4 9 48.5 21.6l-0.8-7.3c-0.4-4-1.7-10.9-2.7-15.3-1-4.4-3.4-11.6-5.2-16-1.9-4.4-5.4-11.2-7.9-15-2.5-3.8-7.6-10.3-11.5-14.4-3.8-4.1-9.8-9.6-13.4-12.3-3.6-2.7-10.3-6.9-15-9.3-4.7-2.4-12.3-5.5-17-6.8-4.7-1.4-13-3-18.5-3.6-6.5-0.6-13.1-0.6-18.7 0-4.9 0.5-10.7 1.3-13 1.9-2.4 0.5-7.5 2-11.3 3.3-3.8 1.3-9 3.4-11.5 4.7-2.5 1.3-7.2 4.1-10.5 6.4-3.3 2.2-9.2 7-13 10.7-3.8 3.7-8.3 8.5-13 14.7l-10.5 0.7c-5.8 0.4-12.6 1-15.2 1.4-2.9 0.4-4.8 0.2-4.8-0.4 0-0.5 1.9-4.4 4.2-8.5 2.4-4.2 6.6-10.5 9.4-14 2.9-3.6 8.5-9.7 12.5-13.5 4.1-3.9 10.8-9.4 14.9-12.1 4.1-2.8 10.8-6.8 14.8-8.8 3.9-2 11.1-4.9 16-6.6 4.8-1.6 12.3-3.6 16.7-4.4 4.4-0.8 14.1-1.5 21.5-1.5zm-79.5 109.7c-2.2 1.1-5.6 3.8-7.6 5.9-2 2.1-4.7 5.8-6 8.3-2 3.7-2.4 5.9-2.3 12.5 0.1 5.9 0.8 10.3 2.9 16.5 1.5 4.7 4.3 11.7 6.3 15.5 1.9 3.8 5.3 9.7 7.5 13 2.2 3.3 7.7 9.6 12.1 14 4.5 4.5 11.7 10.4 16.1 13.3 4.4 2.9 11.4 6.6 15.5 8.3 4.1 1.7 10.9 4 15 5.1 4.6 1.2 12.4 2.2 20 2.5 7.7 0.3 15.4 0.1 20-0.7 4.1-0.7 10.4-2.1 14-3.2 3.6-1.1 10.1-3.8 14.5-6 4.4-2.2 10.9-6.1 14.5-8.8 3.6-2.6 9.2-7.6 12.5-11.1 3.3-3.5 7.9-9.1 10.1-12.4 2.3-3.3 5.4-8.5 6.9-11.5 1.5-3 3.6-8 4.7-11 1-3 1.8-5.8 1.8-6.3 0-0.4-5.9-3.6-13-7.2-7.1-3.6-19.4-9.2-27.3-12.6-7.8-3.3-21.4-8.5-30.2-11.5-8.8-3-21.4-6.9-28-8.5-6.6-1.7-17.2-4-23.5-5.1-7.7-1.3-17.4-2.1-29.5-2.4-9.9-0.2-19.1 0-20.5 0.5-1.4 0.4-4.3 1.7-6.5 2.9z"/>
</svg>