<svg version="1.2" xmlns="http://www.w3.org/2000/svg" viewBox="0 0 832 118" width="832" height="118">
	<title>logo</title>
	<style>
		.s0 { fill: #cc9932 } 
	</style>
	<path id="Path 0" fill-rule="evenodd" class="s0" d="m483.3 0c1 0 2.7 1 3.9 2.3 2 2.1 2.1 2.8 1.5 14.2-0.3 6.6-1.1 16.7-1.7 22.5-0.7 5.9-1 17.7-0.7 27 0.2 9.1 0.9 18.2 1.6 20.3 0.6 2 1.8 4 2.7 4.5 1.1 0.5 2.2-0.1 3.5-1.8 1.1-1.4 3.7-5.4 5.9-9 2.2-3.6 6.2-11.7 8.9-18 2.6-6.3 6.2-15.8 7.9-21 1.7-5.2 3.8-12.6 4.6-16.5 0.9-3.9 2-10.4 2.6-14.5 0.5-4.1 1.6-8.1 2.3-8.8 0.6-0.7 2.2-1.3 3.4-1.2 1.6 0 2.8 1.1 3.9 3.3 1.5 2.9 1.5 3.8-0.1 10.7-1 4.1-4 14-6.7 22-2.8 8-7.7 20.3-10.9 27.5-3.3 7.2-7.7 15.9-9.8 19.5-2.1 3.6-5.7 8.4-8 10.8-2.8 2.9-4.9 4.2-6.9 4.2-1.7 0-3.7-1-5.4-2.7-1.7-1.7-3.3-5.1-4.2-8.8-0.9-3.3-2-9.6-2.5-14-0.5-4.5-0.5-16.1 0-26.5 0.4-10.2 1.1-22.4 1.6-27.3 0.4-4.8 0.6-8.7 0.3-8.8-0.3 0-2.4 2.8-4.7 6.3-2.3 3.5-5.8 10.3-7.9 15.3-2 5-4.8 12.2-6.1 16-1.3 3.9-3.9 12.8-5.8 20-1.8 7.2-3.7 16.8-4.2 21.4-0.4 4.6-1.4 8.7-2.1 9.2-0.6 0.5-2.1 0.7-3.2 0.4-1.1-0.3-2.3-1.5-2.6-2.7-0.3-1.3-0.1-5 0.6-8.3 0.6-3.3 2.7-11.8 4.7-19 1.9-7.2 5.5-18.4 8-25 2.5-6.6 7.3-17.4 10.7-24 3.3-6.6 7.7-13.7 9.7-15.7 2-2.1 4.3-3.8 5.2-3.8zm-442.3 20.3c9.3 0.2 11.2 0.6 17 3.3 3.6 1.7 8.5 5.1 10.9 7.5 2.4 2.4 5.5 6.9 6.9 9.9 1.4 3 2.9 8.2 3.3 11.5 0.5 3.5 0.4 8.6-0.1 12.3-0.6 3.4-1.9 8.1-3 10.5-1.1 2.3-3.5 6-5.3 8.2-1.9 2.2-6 5.4-9.3 7.1-3.2 1.8-8.3 3.7-11.1 4.3-2.9 0.6-7.7 1.1-10.5 1.1-2.9 0-8-0.7-11.3-1.6-3.3-0.8-7.8-2.6-10-3.9-2.2-1.2-5.9-4.3-8.2-6.9-2.4-2.5-5.1-6.3-6.2-8.3-1-2.1-2.4-6.2-3-9-0.6-2.9-1.1-7.2-1.1-9.5 0-2.4 0.7-7 1.5-10.3 0.9-3.3 3-8.2 4.8-10.9 1.8-2.7 5.5-6.5 8.2-8.5 2.8-1.9 7.5-4.3 10.5-5.3 4.2-1.4 8.1-1.7 16-1.5zm-15.6 22.4c-1.7 2.1-3.7 5.4-4.3 7.3-0.6 1.9-1.1 5.5-1 8 0 2.5 0.6 6 1.2 7.7 0.7 1.8 2.6 4.7 4.2 6.4 1.7 1.7 4.4 3.8 6 4.7 1.7 0.8 5.5 1.4 8.5 1.4 3.3 0 6.9-0.7 9-1.8 1.9-0.9 4.7-3.1 6.2-4.8 1.5-1.7 3.3-5.3 3.9-8.1 0.6-2.7 0.9-6.8 0.5-9-0.3-2.2-1.9-6-3.4-8.5-1.8-3-4.3-5.3-7.2-6.7-2.8-1.4-6.2-2.2-9-2.2-2.5 0-6 0.5-7.9 1-2.1 0.5-4.8 2.4-6.7 4.6zm673.4-14.7c0.6 0 2.1 0.9 3.2 2 1.1 1.1 2 2.9 2 4 0 1.1-0.9 4.8-2.1 8.3-1.2 3.4-3.9 9.7-6 14-2.1 4.2-3.7 8.2-3.4 8.7 0.3 0.6 2.2 1.3 4.3 1.6 2 0.4 6.5 0.2 10-0.5 3.4-0.6 9-2.3 12.5-3.8 3.4-1.4 7.6-3.9 9.2-5.5 1.7-1.5 3.8-2.8 4.8-2.8 1.1 0 2.1-1.2 2.7-3.2 0.5-1.8 2.2-4.5 3.7-6 1.6-1.5 4.2-3.2 5.8-3.8 2.4-0.8 3.7-0.7 6.5 0.7 2 1 4.3 3.3 5.2 5.3 1 1.9 1.8 5.3 1.8 7.5 0 2.2-0.6 6.3-1.5 9-0.8 2.8-1.5 5.5-1.5 6 0 0.6 1.4 0.7 3.7 0.2 2.1-0.4 6.3-1.9 9.3-3.3 3-1.4 7-3.6 8.8-5 2.6-2 3.2-3.1 3.2-6.1 0-2.2 1.2-6.1 2.7-9.2 1.6-3 4.2-6.4 5.8-7.6 1.7-1.2 4.1-2.5 5.5-2.8 1.4-0.4 3.4-0.4 4.5-0.2 1.1 0.3 2.6 1.6 3.3 3 0.6 1.4 1.2 2.7 1.2 3 0 0.3-2 2.6-4.5 5.3-2.4 2.6-4.8 6.1-5.3 7.7-0.7 2.1-0.5 5.2 0.6 10 0.8 3.8 1.6 7.1 1.8 7.3 0.2 0.1 3.4-1.8 7.2-4.2 3.7-2.4 10.5-6.3 15.2-8.6 5.1-2.5 9.2-4 10.3-3.6 0.9 0.3 1.7 1.4 1.7 2.4-0.1 1.2-3.6 3.4-11.8 7.4-6.4 3.2-13.9 7.4-16.6 9.5-4.6 3.6-4.9 4-4.3 7.3 0.4 1.9 0.2 6.3-0.3 9.8-0.6 3.4-1.9 8-3 10.2-1.1 2.2-3.5 5.6-5.2 7.7-1.8 2-5.5 4.7-8.3 6-2.7 1.2-6.2 2.3-7.7 2.3-1.8 0-3.9-1.1-5.8-3-1.9-1.9-3-4-3-5.7 0-1.6 1-4.8 2.1-7.3 1.2-2.6 5.9-8.4 20.4-23.1l-2.5-6.9c-1.4-3.9-2.7-6.9-3-6.8-0.3 0.2-4.8 2.5-10 5.1-6.3 3.3-11.2 5-14.5 5.3-4.6 0.5-5.3 0.9-9 5.6-2.2 2.8-5.2 5.7-6.7 6.4-1.6 0.8-4.1 1.4-5.8 1.4-1.9 0-4.2-1-6.1-2.7-1.7-1.6-3.7-4.6-4.6-6.8q-1.5-4-0.9-8.7c0.3-2.7 0.5-4.8 0.4-4.8-0.2 0-3.4 1.2-7.3 2.6-5.6 2.2-8.8 2.7-16 2.8-4.9 0.1-9.9-0.3-11-0.7-1.7-0.7-2.9 0.4-7.9 7-3.3 4.3-8.7 10.6-12 13.9-3.9 4-7.5 6.6-10.1 7.4-3 0.9-4.6 1-6.2 0.1-1.3-0.6-3.1-2.6-4-4.3-1.4-2.6-1.8-5.8-1.8-15.5 0-7.8-0.4-11.9-1-11.5-0.5 0.3-3 2-5.5 3.8-2.5 1.8-8 5-12.2 7.3-6.3 3.3-8.8 4.1-13 4.1-3.5-0.1-6.4-0.8-8.5-2-2.2-1.3-4.2-3.9-8.3-13l-3 2c-1.6 1.1-3.2 2.5-3.5 3-0.3 0.6-2.7 2.1-5.5 3.5-2.7 1.4-6.7 2.5-8.7 2.5-2.5 0-5.1-1-7.6-2.8-2.2-1.5-4.8-4.7-8.1-11.7l-4 5c-2.3 2.8-6.6 7.6-9.7 10.8-4.5 4.6-6.2 5.7-8.7 5.7-1.8 0-3.9-0.7-4.7-1.5-0.8-0.8-2-3.4-2.6-5.7-0.9-3.4-0.9-5.9 0.3-11.8 0.8-4.1 2.7-10.1 4.1-13.2 1.5-3.2 3.9-6.6 5.3-7.5 2.4-1.6 2.9-1.7 5.3-0.3 1.7 1 2.7 2.6 2.9 4.5 0.2 2-1.4 6.5-4.7 13.5-2.8 5.8-5.1 11.7-5.1 13.3 0 1.5 0.4 2.7 0.8 2.7 0.4 0 3-2.4 5.8-5.2 2.8-2.9 7.8-8.6 11-12.6 4.3-5.4 6.4-7.3 7.9-7 1.4 0.2 2.2 1.5 2.8 4.8 0.4 2.5 0.9 5.4 1.2 6.5 0.2 1.1 1.5 3.2 2.9 4.8 1.8 1.9 3.6 2.7 5.9 2.7 1.7 0 4.6-0.8 6.2-1.9 1.7-1 5.3-3.8 8-6.3 3.2-2.9 5.4-5.9 6.2-8.4 0.7-2.1 2.7-6.1 4.5-8.7 2-3 4.8-5.6 7.3-6.8 2.2-1 5.4-1.9 7-1.9 1.7 0 4 0.7 5.3 1.5 1.2 0.8 2.7 2.7 3.2 4.3q1.1 2.7 0.1 5.7c-0.5 1.7-2.6 4.5-4.5 6.3-2 1.7-5.7 3.8-12.8 5.7l0.3 5.1c0.2 2.8 1.1 5.8 1.9 6.8 0.9 1 2.9 1.7 5 1.7 1.9-0.1 6.7-1.6 10.5-3.5 3.9-1.8 10.3-5.7 14.3-8.5 3.9-2.8 7.5-5.9 7.8-6.8 0.4-1 1.9-4.6 3.5-8 2-4.4 3.8-6.7 5.9-7.8 2.2-1.1 3.6-1.2 5.5-0.5 1.4 0.5 2.8 2 3.1 3.3 0.5 1.5-0.5 4.2-2.9 8.7-2 3.6-4.7 9.5-6.1 13.3-1.4 3.7-3.1 9.7-3.7 13.5-0.5 3.7-0.8 8.2-0.5 10 0.5 2.6 1.1 3.2 3.2 3.2 1.9 0 4.7-2.2 10.7-8.2 4.5-4.6 9.9-10.8 12-13.8 3.4-5 3.7-5.8 2.6-8.5-0.6-1.6-1.1-5.9-1.1-9.5 0-4.6 0.6-8 2.2-11.5 1.2-2.7 3.1-6.3 4.3-7.8 1.2-1.6 3.5-3.8 5.2-4.8 1.6-1 3.6-1.9 4.3-1.9zm-8.9 22c-0.6 3-0.9 6.2-0.6 7 0.2 0.9 1.5-0.8 3-4 1.4-3 3.2-7.9 4-10.7 0.8-2.9 1.3-5.3 1.1-5.3-0.1 0-1.6 1.7-3.3 3.8-2 2.3-3.5 5.7-4.2 9.2zm52 6.8c0.1 2 0.9 4.9 1.9 6.4 0.9 1.5 2.7 3.4 4 4.3 1.2 0.8 2.7 1.3 3.2 1 0.6-0.3 1.5-2.9 2.1-5.7 0.6-2.9 0.9-7.1 0.5-9.3-0.3-2.2-1.2-4.6-1.8-5.3-0.7-0.7-2.1-1.3-3-1.2-0.9 0-2.8 1.4-4.3 3.1-2 2.2-2.7 4-2.6 6.7zm-128.4 1c0.3 0.4 1.9 0 3.6-0.8 1.8-0.8 3.8-2.6 4.5-4 0.7-1.4 1-2.8 0.6-3.3-0.4-0.4-1-0.7-1.3-0.7-0.4 0-2.3 1.8-4.3 4-2 2.2-3.4 4.3-3.1 4.8zm120.8 12.5c-1.3 4.3-1.6 6.4-0.8 8.4 0.6 1.4 1.8 3.1 2.8 3.7 1.3 0.8 2.4 0.7 4.4-0.4 1.4-0.8 3.5-2.8 4.7-4.4 2.1-2.8 2.1-2.8 0.1-4-1.1-0.6-3.6-2.9-5.6-5.1l-3.7-4zm36.8 35.2c-1.1 3.4-1.1 4.3 0 5.4 0.8 0.8 2.4 1.1 4.1 0.7 1.5-0.3 4.4-2 6.4-3.8 2-1.8 4.4-4.8 5.3-6.8 1-1.9 2-5.5 2.3-8 0.4-2.4 0.3-5.3-0.1-6.3-0.6-1.6-2-0.6-8.7 6.5-5.3 5.4-8.5 9.7-9.3 12.3zm-417.2-85.2c10.4 0.3 13.4 0.7 17.5 2.6 2.8 1.2 6.1 3.2 7.4 4.4 1.3 1.3 3.2 4 4.2 6.2 1.1 2.2 1.9 5.7 1.9 11.5l-17.5 0.1-1.2-3c-0.7-1.7-2.5-3.7-4-4.5-1.5-0.7-4.6-1.5-6.8-1.6-2.2-0.2-5.7-0.2-7.8-0.1-2.5 0.1-4.6 1-6.2 2.6-1.4 1.4-2.5 3.1-2.5 3.8 0 0.7 0.8 2.3 1.7 3.6 1.5 1.9 4.3 2.8 16.3 5.2 8 1.5 16.6 3.7 19 4.8 2.5 1 5.5 3 6.7 4.3 1.2 1.3 2.9 4 3.8 6.1 0.8 2.1 1.5 5.3 1.5 7.2 0 2-0.7 5.2-1.5 7.3-0.9 2.1-3 5.2-4.8 7-1.7 1.8-5.6 4.2-8.7 5.4-3.5 1.2-9.1 2.2-15.5 2.6-7.7 0.4-11.8 0.1-18-1.3-5.5-1.2-9.2-2.8-11.9-4.9-2.2-1.7-5-5.1-6.3-7.6-1.3-2.4-2.3-6.1-2.3-12h9c7.9 0 9 0.3 9 1.8 0 1 1 2.7 2.3 3.9 1.2 1.1 4 2.7 6.2 3.3 2.2 0.7 6.8 1.1 10.2 0.9 4.3-0.2 7-1 9-2.5 1.9-1.4 2.8-3 2.8-4.9 0-1.8-0.8-3.4-2.5-4.5-1.4-1.1-7.4-2.7-14.2-3.9-6.5-1.1-14.1-2.9-17-4-3.1-1.1-6.6-3.4-8.5-5.5-1.8-2-3.8-5.2-4.4-7.3-0.6-2.1-0.8-5.8-0.5-8.3 0.3-2.4 1.6-6 2.9-7.9 1.2-1.8 3.4-4.2 4.7-5.3 1.4-1 5-2.7 8-3.8 4.7-1.7 7.5-2 18-1.7zm-265.8 1.6l23.2 0.4c20.9 0.3 23.7 0.5 28.6 2.5 3.1 1.2 7.5 3.9 9.9 6 2.4 2 5.4 6 6.7 8.7 1.3 2.8 2.9 8.2 3.5 12 0.9 5.4 0.9 8.7 0 14-0.7 3.9-2.3 9.1-3.5 11.5-1.3 2.5-4.3 6.3-6.7 8.3-2.7 2.4-6.9 4.6-10.9 5.9-5.5 1.8-9.8 2.2-49.5 3.1l-0.7-9.4c-0.4-5.1-0.7-21.4-0.7-36.2zm19.8 55.2c12.1-0.1 17.6-0.5 20-1.1 2.8-0.6 5.8-2.3 7.8-4.2 2-2 3.6-5 4.3-7.7 0.8-3.2 0.8-6.2 0-10.3-0.6-3.1-1.8-6.9-2.8-8.3-1-1.4-3.6-3.4-5.8-4.5-3-1.5-6.2-1.9-13.7-1.9h-9.8zm61.2-55h22.7c18.6 0 23.7 0.3 28.6 1.7 3.6 1.1 7.5 3.2 10 5.3 2.6 2.3 4.7 5.4 5.8 8.5 1 2.8 1.8 7.4 1.8 10.5 0 3-0.7 7.5-1.5 10-0.9 2.6-3 6-9.1 11.6l6.7 11.4c3.7 6.3 6.4 11.8 6 12.2-0.4 0.5-4.7 0.7-18.6 0.3l-11.3-20-20.3-0.5v21h-9.5c-6.7 0-9.6-0.4-9.9-1.3-0.2-0.7-0.6-16.9-0.9-36zm20.2 21.8c0.4 2.6 0.7 6.9 0.7 9.5l-0.1 4.7c17.4 0 22-0.5 23.8-1.3 1.5-0.8 3.1-2.1 3.5-3 0.4-0.9 0.7-3.3 0.7-5.2 0-1.9-0.3-4.2-0.7-5.1-0.4-0.9-2-2.3-3.5-3-1.8-0.9-6.5-1.4-13.9-1.4h-11.2zm58.7-21.7h62v16l-42.5-0.1 0.7 3.8c0.4 2.1 0.8 5 0.8 9.3h40v14h-40v12h42v17h-30.5c-23.5 0-30.6-0.3-30.9-1.3-0.3-0.7-0.7-16.9-1-36z"/>
</svg>